<svg width="24" height="24" viewBox="0 0 24 24" fill="none" xmlns="http://www.w3.org/2000/svg">
<path d="M17.4004 19.8V20.3C17.6765 20.3 17.9004 20.0761 17.9004 19.8H17.4004ZM6.60039 19.8H6.10039C6.10039 20.0761 6.32425 20.3 6.60039 20.3V19.8ZM10.1004 10.2C10.1004 9.92386 9.87653 9.7 9.60039 9.7C9.32425 9.7 9.10039 9.92386 9.10039 10.2H10.1004ZM9.10039 17.4C9.10039 17.6761 9.32425 17.9 9.60039 17.9C9.87653 17.9 10.1004 17.6761 10.1004 17.4H9.10039ZM12.5004 10.2C12.5004 9.92386 12.2765 9.7 12.0004 9.7C11.7242 9.7 11.5004 9.92386 11.5004 10.2H12.5004ZM11.5004 17.4C11.5004 17.6761 11.7242 17.9 12.0004 17.9C12.2765 17.9 12.5004 17.6761 12.5004 17.4H11.5004ZM14.9004 10.2C14.9004 9.92386 14.6765 9.7 14.4004 9.7C14.1242 9.7 13.9004 9.92386 13.9004 10.2H14.9004ZM13.9004 17.4C13.9004 17.6761 14.1242 17.9 14.4004 17.9C14.6765 17.9 14.9004 17.6761 14.9004 17.4H13.9004ZM8.50039 5.4C8.50039 5.67614 8.72425 5.9 9.00039 5.9C9.27653 5.9 9.50039 5.67614 9.50039 5.4H8.50039ZM9.00039 3V2.5C8.72425 2.5 8.50039 2.72386 8.50039 3H9.00039ZM15.0004 3H15.5004C15.5004 2.72386 15.2765 2.5 15.0004 2.5V3ZM14.5004 5.4C14.5004 5.67614 14.7242 5.9 15.0004 5.9C15.2765 5.9 15.5004 5.67614 15.5004 5.4H14.5004ZM16.9004 7.8V19.8H17.9004V7.8H16.9004ZM17.4004 19.3H6.60039V20.3H17.4004V19.3ZM7.10039 19.8V7.8H6.10039V19.8H7.10039ZM9.10039 10.2V17.4H10.1004V10.2H9.10039ZM11.5004 10.2V17.4H12.5004V10.2H11.5004ZM13.9004 10.2V17.4H14.9004V10.2H13.9004ZM9.50039 5.4V3H8.50039V5.4H9.50039ZM9.00039 3.5H15.0004V2.5H9.00039V3.5ZM14.5004 3V5.4H15.5004V3H14.5004ZM6.60039 5.9H17.4004V4.9H6.60039V5.9ZM17.4004 5.9C17.787 5.9 18.1004 6.2134 18.1004 6.6H19.1004C19.1004 5.66112 18.3393 4.9 17.4004 4.9V5.9ZM18.1004 6.6C18.1004 6.9866 17.787 7.3 17.4004 7.3V8.3C18.3393 8.3 19.1004 7.53888 19.1004 6.6H18.1004ZM17.4004 7.3H6.60039V8.3H17.4004V7.3ZM6.60039 7.3C6.21379 7.3 5.90039 6.9866 5.90039 6.6H4.90039C4.90039 7.53888 5.66151 8.3 6.60039 8.3V7.3ZM5.90039 6.6C5.90039 6.2134 6.21379 5.9 6.60039 5.9V4.9C5.66151 4.9 4.90039 5.66112 4.90039 6.6H5.90039Z" fill="#EC5764"/>
</svg>
